<svg width="408" height="409" viewBox="0 0 408 409" fill="none" xmlns="http://www.w3.org/2000/svg">
<g filter="url(#filter0_i_9_81)">
<path d="M150.924 8.5239C126.708 -14.7074 4.93137 69.2419 4 154.247C6.94934 200.534 16.1544 305.039 29.3798 352.769C45.9116 412.431 201.45 427.742 205.409 360.424C209.367 293.107 340.69 265.652 388.19 219.189C435.69 172.727 367.933 116.76 293.889 134.448C219.845 152.135 175.139 31.7551 150.924 8.5239Z" fill="#0179E9"/>
</g>
<path d="M150.924 8.5239C126.708 -14.7074 4.93137 69.2419 4 154.247C6.94934 200.534 16.1544 305.039 29.3798 352.769C45.9116 412.431 201.45 427.742 205.409 360.424C209.367 293.107 340.69 265.652 388.19 219.189C435.69 172.727 367.933 116.76 293.889 134.448C219.845 152.135 175.139 31.7551 150.924 8.5239Z" stroke="black" stroke-width="8"/>
<defs>
<filter id="filter0_i_9_81" x="-0.00140381" y="0.600586" width="408.002" height="407.999" filterUnits="userSpaceOnUse" color-interpolation-filters="sRGB">
<feFlood flood-opacity="0" result="BackgroundImageFix"/>
<feBlend mode="normal" in="SourceGraphic" in2="BackgroundImageFix" result="shape"/>
<feColorMatrix in="SourceAlpha" type="matrix" values="0 0 0 0 0 0 0 0 0 0 0 0 0 0 0 0 0 0 127 0" result="hardAlpha"/>
<feOffset dy="-40"/>
<feComposite in2="hardAlpha" operator="arithmetic" k2="-1" k3="1"/>
<feColorMatrix type="matrix" values="0 0 0 0 0 0 0 0 0 0 0 0 0 0 0 0 0 0 0.25 0"/>
<feBlend mode="normal" in2="shape" result="effect1_innerShadow_9_81"/>
</filter>
</defs>
</svg>
