<svg width="408" height="409" viewBox="0 0 408 409" fill="none" xmlns="http://www.w3.org/2000/svg">
<g filter="url(#filter0_i_9_83)">
<path d="M110.064 398.473C68.7545 408.271 6.67731 420.131 6.67731 321.638C1.56064 235.78 0.266424 54.9869 36.0229 18.684C80.7185 -26.6947 123.834 48.3348 140.99 115.114C158.146 181.893 423.611 124.911 402.843 189.885C382.075 254.86 151.374 388.675 110.064 398.473Z" fill="#0179E9"/>
</g>
<path d="M110.064 398.473C68.7545 408.271 6.67731 420.131 6.67731 321.638C1.56064 235.78 0.266424 54.9869 36.0229 18.684C80.7185 -26.6947 123.834 48.3348 140.99 115.114C158.146 181.893 423.611 124.911 402.843 189.885C382.075 254.86 151.374 388.675 110.064 398.473Z" stroke="black" stroke-width="8"/>
<defs>
<filter id="filter0_i_9_83" x="0" y="0.830566" width="408" height="408.001" filterUnits="userSpaceOnUse" color-interpolation-filters="sRGB">
<feFlood flood-opacity="0" result="BackgroundImageFix"/>
<feBlend mode="normal" in="SourceGraphic" in2="BackgroundImageFix" result="shape"/>
<feColorMatrix in="SourceAlpha" type="matrix" values="0 0 0 0 0 0 0 0 0 0 0 0 0 0 0 0 0 0 127 0" result="hardAlpha"/>
<feOffset dy="-40"/>
<feComposite in2="hardAlpha" operator="arithmetic" k2="-1" k3="1"/>
<feColorMatrix type="matrix" values="0 0 0 0 0 0 0 0 0 0 0 0 0 0 0 0 0 0 0.25 0"/>
<feBlend mode="normal" in2="shape" result="effect1_innerShadow_9_83"/>
</filter>
</defs>
</svg>
