<svg width="151" height="151" viewBox="0 0 151 151" fill="none" xmlns="http://www.w3.org/2000/svg">
<path d="M51.5088 97.8294C43.2569 115.146 32.6015 95.0865 39.7531 114.226L44.1542 122.429C54.6066 123.037 53.8855 116.79 65.7683 108.769C80.6218 98.7439 40.3033 71.8484 57.9074 49.5159C75.5115 27.1835 65.7683 -9.74049 65.7683 11.2221C65.7683 32.1848 48.0051 30.3758 39.7531 49.5155C31.5012 68.6553 59.7607 80.5125 51.5088 97.8294Z" fill="#02C563" stroke="black" stroke-width="2"/>
<path d="M47.8256 95.8752C48.0538 115.139 29.7275 102.109 44.5192 115.926L52.0522 121.233C61.6584 116.975 58.272 111.725 65.3689 99.1005C74.24 83.32 26.4087 77.8076 32.3354 49.7671C38.262 21.7267 16.4619 8.90149 25.6636 27.632C34.8653 46.3625 24.6353 42.2944 25.6636 63.1865C26.6919 84.0785 47.5975 76.6119 47.8256 95.8752Z" fill="#02C563" stroke="black" stroke-width="2"/>
<path d="M64.3039 107.684C46.4604 113.846 52.9266 91.9951 44.6385 110.649L42.0253 119.616C48.947 127.651 61.6434 128.548 75.5717 131.561C92.982 135.328 91.3938 104.451 111.264 84.205C129.936 65.18 149.147 42.4792 134.566 57.2086C119.985 71.938 118.746 72.1541 99.6345 79.5964C80.523 87.0388 82.1475 101.523 64.3039 107.684Z" fill="#02C563" stroke="black" stroke-width="2"/>
<path d="M63.3859 93.9969C50.3609 107.911 46.1992 85.4817 47.2989 105.941L49.0425 115.126C58.8149 118.968 59.992 112.795 73.7009 108.867C90.8369 103.957 61.9475 60.0887 85.375 44.3181C108.802 28.5476 109.061 -3.98814 102.806 15.9742C96.5515 35.9366 81.1196 28.668 67.5507 44.3181C53.9818 59.9683 76.411 80.0826 63.3859 93.9969Z" fill="#02C563" stroke="black" stroke-width="2"/>
<path d="M64.8903 111.001C54.6244 123.237 46.5547 105.804 51.277 121.951L54.6201 129.086C64.8676 131.248 64.9192 126.238 77.634 121.871C93.5274 116.413 71.7989 85.5504 83.5927 63.3556C94.5587 42.7186 110.329 33.2711 89.5598 45.4544C75.4572 53.7269 78.0394 57.8986 67.5507 71.5616C57.062 85.2247 75.1561 98.7664 64.8903 111.001Z" fill="#0BE97A"/>
<path d="M64.8903 111.001C54.6244 123.237 46.5547 105.804 51.277 121.951L54.6201 129.086C64.8676 131.248 64.9192 126.238 77.634 121.871C93.5274 116.413 71.7989 85.5504 83.5927 63.3556C94.5587 42.7186 110.329 33.2711 89.5598 45.4544C75.4572 53.7269 78.0394 57.8986 67.5507 71.5616C57.062 85.2247 75.1561 98.7664 64.8903 111.001Z" fill="#0BE97A"/>
<path d="M64.8903 111.001C54.6244 123.237 46.5547 105.804 51.277 121.951L54.6201 129.086C64.8676 131.248 64.9192 126.238 77.634 121.871C93.5274 116.413 71.7989 85.5504 83.5927 63.3556C94.5587 42.7186 110.329 33.2711 89.5598 45.4544C75.4572 53.7269 78.0394 57.8986 67.5507 71.5616C57.062 85.2247 75.1561 98.7664 64.8903 111.001Z" fill="#0BE97A"/>
<path d="M64.8903 111.001C54.6244 123.237 46.5547 105.804 51.277 121.951L54.6201 129.086C64.8676 131.248 64.9192 126.238 77.634 121.871C93.5274 116.413 71.7989 85.5504 83.5927 63.3556C94.5587 42.7186 110.329 33.2711 89.5598 45.4544C75.4572 53.7269 78.0394 57.8986 67.5507 71.5616C57.062 85.2247 75.1561 98.7664 64.8903 111.001Z" stroke="black" stroke-width="2"/>
<path d="M78.8226 111.778C64.8089 119.159 63.7495 99.901 62.1811 116.679L62.6519 124.577C71.3496 130.526 73.2414 125.905 86.6278 126.756C103.361 127.821 79.6705 88.2103 103.699 82.3797C127.728 76.5492 134.221 46.3295 125.803 60.5558C117.384 74.7821 102.914 64.1448 88.1687 72.7627C73.4229 81.3807 92.8364 104.397 78.8226 111.778Z" fill="#0BE97A"/>
<path d="M78.8226 111.778C64.8089 119.159 63.7495 99.901 62.1811 116.679L62.6519 124.577C71.3496 130.526 73.2414 125.905 86.6278 126.756C103.361 127.821 79.6705 88.2103 103.699 82.3797C127.728 76.5492 134.221 46.3295 125.803 60.5558C117.384 74.7821 102.914 64.1448 88.1687 72.7627C73.4229 81.3807 92.8364 104.397 78.8226 111.778Z" fill="#0BE97A"/>
<path d="M78.8226 111.778C64.8089 119.159 63.7495 99.901 62.1811 116.679L62.6519 124.577C71.3496 130.526 73.2414 125.905 86.6278 126.756C103.361 127.821 79.6705 88.2103 103.699 82.3797C127.728 76.5492 134.221 46.3295 125.803 60.5558C117.384 74.7821 102.914 64.1448 88.1687 72.7627C73.4229 81.3807 92.8364 104.397 78.8226 111.778Z" fill="#0BE97A"/>
<path d="M78.8226 111.778C64.8089 119.159 63.7495 99.901 62.1811 116.679L62.6519 124.577C71.3496 130.526 73.2414 125.905 86.6278 126.756C103.361 127.821 79.6705 88.2103 103.699 82.3797C127.728 76.5492 134.221 46.3295 125.803 60.5558C117.384 74.7821 102.914 64.1448 88.1687 72.7627C73.4229 81.3807 92.8364 104.397 78.8226 111.778Z" stroke="black" stroke-width="2"/>
<path d="M55.0791 105.703C48.6075 120.405 36.0549 106.012 45.0414 120.139L50.2178 126.018C60.645 125.133 59.3119 120.312 70.3043 112.451C84.0448 102.625 41.3952 86.723 56.6465 66.8545C71.8979 46.9859 58.5819 19.2045 60.6554 35.6984C62.7289 52.1923 44.9318 53.0865 38.6405 69.2228C32.3492 85.3591 61.5507 91.0014 55.0791 105.703Z" fill="#0BE97A"/>
<path d="M55.0791 105.703C48.6075 120.405 36.0549 106.012 45.0414 120.139L50.2178 126.018C60.645 125.133 59.3119 120.312 70.3043 112.451C84.0448 102.625 41.3952 86.723 56.6465 66.8545C71.8979 46.9859 58.5819 19.2045 60.6554 35.6984C62.7289 52.1923 44.9318 53.0865 38.6405 69.2228C32.3492 85.3591 61.5507 91.0014 55.0791 105.703Z" fill="#0BE97A"/>
<path d="M55.0791 105.703C48.6075 120.405 36.0549 106.012 45.0414 120.139L50.2178 126.018C60.645 125.133 59.3119 120.312 70.3043 112.451C84.0448 102.625 41.3952 86.723 56.6465 66.8545C71.8979 46.9859 58.5819 19.2045 60.6554 35.6984C62.7289 52.1923 44.9318 53.0865 38.6405 69.2228C32.3492 85.3591 61.5507 91.0014 55.0791 105.703Z" fill="#0BE97A"/>
<path d="M55.0791 105.703C48.6075 120.405 36.0549 106.012 45.0414 120.139L50.2178 126.018C60.645 125.133 59.3119 120.312 70.3043 112.451C84.0448 102.625 41.3952 86.723 56.6465 66.8545C71.8979 46.9859 58.5819 19.2045 60.6554 35.6984C62.7289 52.1923 44.9318 53.0865 38.6405 69.2228C32.3492 85.3591 61.5507 91.0014 55.0791 105.703Z" stroke="black" stroke-width="2"/>
<path d="M50.6176 106.946C39.6327 118.509 54.9002 112.411 58.6386 128.826C74.8312 124.382 43.3078 102.821 64.2686 89.464C85.2293 76.1068 81.9731 45.3456 78.4237 61.5741C74.8743 77.8025 57.8459 72.4348 46.5523 85.4091C35.2587 98.3835 61.6026 95.3829 50.6176 106.946Z" fill="#45FFA2" stroke="black" stroke-width="2"/>
<path d="M54.1825 118.797C39.3265 124.186 49.7264 125.378 63.9859 131.561C80.4274 134.916 65.7618 102.14 90.3382 99.6643C114.915 97.1885 125.318 68.1351 115.107 81.0756C104.897 94.016 95.7716 84.9342 80.0277 91.4477C64.2839 97.9612 69.0386 113.409 54.1825 118.797Z" fill="#45FFA2" stroke="black" stroke-width="2"/>
<path d="M66.3976 122.362C51.5415 127.75 61.9414 128.942 76.2009 135.126C92.6424 138.48 78.623 118.538 103.199 116.062C127.776 113.587 131.234 84.889 121.024 97.8294C110.813 110.77 111.814 103.167 96.0697 109.681C80.3258 116.194 81.2536 116.974 66.3976 122.362Z" fill="#45FFA2" stroke="black" stroke-width="2"/>
</svg>
